<mxfile host="app.diagrams.net" agent="Mozilla/5.0 (Macintosh; Intel Mac OS X 10_15_7) AppleWebKit/537.36 (KHTML, like Gecko) Chrome/129.0.0.0 Safari/537.36" version="24.7.17">
  <diagram name="PÃ¡gina-1" id="nIVvVxTf7GUyIFhO0LIO">
    <mxGraphModel dx="1434" dy="761" grid="1" gridSize="10" guides="1" tooltips="1" connect="1" arrows="1" fold="1" page="1" pageScale="1" pageWidth="827" pageHeight="1169" math="0" shadow="0">
      <root>
        <mxCell id="0" />
        <mxCell id="1" parent="0" />
        <mxCell id="W6YEFapej8WOYCnyCdhl-1" value="Inicio" style="strokeWidth=2;html=1;shape=mxgraph.flowchart.start_2;whiteSpace=wrap;" vertex="1" parent="1">
          <mxGeometry x="290" y="40" width="100" height="100" as="geometry" />
        </mxCell>
        <mxCell id="W6YEFapej8WOYCnyCdhl-5" value="" style="edgeStyle=orthogonalEdgeStyle;rounded=0;orthogonalLoop=1;jettySize=auto;html=1;" edge="1" parent="1" source="W6YEFapej8WOYCnyCdhl-2" target="W6YEFapej8WOYCnyCdhl-4">
          <mxGeometry relative="1" as="geometry" />
        </mxCell>
        <mxCell id="W6YEFapej8WOYCnyCdhl-10" value="" style="edgeStyle=orthogonalEdgeStyle;rounded=0;orthogonalLoop=1;jettySize=auto;html=1;" edge="1" parent="1" source="W6YEFapej8WOYCnyCdhl-2" target="W6YEFapej8WOYCnyCdhl-9">
          <mxGeometry relative="1" as="geometry" />
        </mxCell>
        <mxCell id="W6YEFapej8WOYCnyCdhl-2" value="condicion" style="strokeWidth=2;html=1;shape=mxgraph.flowchart.decision;whiteSpace=wrap;" vertex="1" parent="1">
          <mxGeometry x="290" y="230" width="100" height="100" as="geometry" />
        </mxCell>
        <mxCell id="W6YEFapej8WOYCnyCdhl-3" style="edgeStyle=orthogonalEdgeStyle;rounded=0;orthogonalLoop=1;jettySize=auto;html=1;entryX=0.5;entryY=0;entryDx=0;entryDy=0;entryPerimeter=0;" edge="1" parent="1" source="W6YEFapej8WOYCnyCdhl-1" target="W6YEFapej8WOYCnyCdhl-2">
          <mxGeometry relative="1" as="geometry" />
        </mxCell>
        <mxCell id="W6YEFapej8WOYCnyCdhl-4" value="Accion" style="whiteSpace=wrap;html=1;strokeWidth=2;" vertex="1" parent="1">
          <mxGeometry x="280" y="400" width="120" height="60" as="geometry" />
        </mxCell>
        <mxCell id="W6YEFapej8WOYCnyCdhl-7" value="si" style="text;html=1;align=center;verticalAlign=middle;resizable=0;points=[];autosize=1;strokeColor=none;fillColor=none;" vertex="1" parent="1">
          <mxGeometry x="350" y="338" width="30" height="30" as="geometry" />
        </mxCell>
        <mxCell id="W6YEFapej8WOYCnyCdhl-8" style="edgeStyle=orthogonalEdgeStyle;rounded=0;orthogonalLoop=1;jettySize=auto;html=1;entryX=1;entryY=0.5;entryDx=0;entryDy=0;entryPerimeter=0;" edge="1" parent="1" source="W6YEFapej8WOYCnyCdhl-4" target="W6YEFapej8WOYCnyCdhl-2">
          <mxGeometry relative="1" as="geometry">
            <Array as="points">
              <mxPoint x="510" y="430" />
              <mxPoint x="510" y="280" />
            </Array>
          </mxGeometry>
        </mxCell>
        <mxCell id="W6YEFapej8WOYCnyCdhl-9" value="Fin" style="ellipse;whiteSpace=wrap;html=1;strokeWidth=2;" vertex="1" parent="1">
          <mxGeometry x="160" y="560" width="80" height="80" as="geometry" />
        </mxCell>
        <mxCell id="W6YEFapej8WOYCnyCdhl-13" value="No" style="text;html=1;align=center;verticalAlign=middle;resizable=0;points=[];autosize=1;strokeColor=none;fillColor=none;" vertex="1" parent="1">
          <mxGeometry x="230" y="290" width="40" height="30" as="geometry" />
        </mxCell>
      </root>
    </mxGraphModel>
  </diagram>
</mxfile>
